<svg width="24" height="28" viewBox="0 0 24 28" fill="none" xmlns="http://www.w3.org/2000/svg">
<mask id="mask0_330_82" style="mask-type:alpha" maskUnits="userSpaceOnUse" x="0" y="2" width="11" height="25">
<path d="M10.8679 26.48L-5.72205e-06 26.48L-3.74266e-06 2.48001L10.8679 2.48001L10.8679 26.48Z" fill="#D9D9D9"/>
</mask>
<g mask="url(#mask0_330_82)">
<path d="M4.52832 15.44H7.2453M1.81134 11.6L3.62266 12.56L4.77343 8.90055C5.01096 8.1452 5.12973 7.76753 5.35002 7.4883C5.54454 7.24173 5.79436 7.05087 6.07655 6.93323C6.39612 6.8 6.77169 6.8 7.52282 6.8H14.2131C14.9642 6.8 15.3398 6.8 15.6593 6.93323C15.9415 7.05087 16.1913 7.24173 16.3859 7.4883C16.6062 7.76753 16.7249 8.1452 16.9625 8.90055L18.1132 12.56L19.9245 11.6M14.4906 15.44H17.2076M6.15851 12.56H15.5774C17.099 12.56 17.8599 12.56 18.441 12.8739C18.9523 13.15 19.3679 13.5906 19.6284 14.1325C19.9245 14.7486 19.9245 15.5551 19.9245 17.168V19.76C19.9245 20.2061 19.9245 20.4291 19.8897 20.6146C19.7468 21.3762 19.1851 21.9716 18.4666 22.1231C18.2916 22.16 18.0812 22.16 17.6604 22.16H17.2076C16.2072 22.16 15.3962 21.3004 15.3962 20.24C15.3962 19.9749 15.1935 19.76 14.9434 19.76H6.79247C6.54238 19.76 6.33964 19.9749 6.33964 20.24C6.33964 21.3004 5.52869 22.16 4.52832 22.16H4.07549C3.65467 22.16 3.44426 22.16 3.26929 22.1231C2.55076 21.9716 1.98907 21.3762 1.84614 20.6146C1.81134 20.4291 1.81134 20.2061 1.81134 19.76V17.168C1.81134 15.5551 1.81134 14.7486 2.10747 14.1325C2.36796 13.5906 2.7836 13.15 3.29484 12.8739C3.87603 12.56 4.63686 12.56 6.15851 12.56Z" stroke="#667085" stroke-width="2" stroke-linecap="round" stroke-linejoin="round"/>
</g>
<path d="M12.6793 2V26" stroke="#667085" stroke-width="2" stroke-linecap="round"/>
<mask id="mask1_330_82" style="mask-type:alpha" maskUnits="userSpaceOnUse" x="14" y="4" width="10" height="22">
<path d="M14.4905 4.88L23.5471 4.88L23.5471 25.1467L14.4905 25.1467L14.4905 4.88Z" fill="#D9D9D9"/>
</mask>
<g mask="url(#mask1_330_82)">
<path d="M21.87 22.08C21.87 20.9015 21.87 20.3123 21.7328 19.8328C21.4238 18.7533 20.6269 17.9085 19.6084 17.581C19.1561 17.4356 18.6002 17.4356 17.4884 17.4356H13.5052C12.3934 17.4356 11.8376 17.4356 11.3852 17.581C10.3668 17.9085 9.56981 18.7533 9.26087 19.8328C9.12366 20.3123 9.12366 20.9015 9.12366 22.08M19.0817 10.68C19.0817 12.7787 17.4767 14.48 15.4968 14.48C13.5169 14.48 11.9119 12.7787 11.9119 10.68C11.9119 8.58133 13.5169 6.88001 15.4968 6.88001C17.4767 6.88001 19.0817 8.58133 19.0817 10.68Z" stroke="#667085" stroke-width="2" stroke-linecap="round" stroke-linejoin="round"/>
</g>
</svg>
