<svg width="24" height="25" viewBox="0 0 24 25" fill="none" xmlns="http://www.w3.org/2000/svg">
<g id="file-06">
<path id="Icon" d="M14 2.56152V6.69206C14 7.25212 14 7.53214 14.109 7.74605C14.2049 7.93422 14.3578 8.0872 14.546 8.18307C14.7599 8.29206 15.0399 8.29206 15.6 8.29206H19.7305M16 13.292H8M16 17.292H8M10 9.29199H8M14 2.29199H8.8C7.11984 2.29199 6.27976 2.29199 5.63803 2.61897C5.07354 2.90659 4.6146 3.36553 4.32698 3.93002C4 4.57176 4 5.41183 4 7.09199V17.492C4 19.1721 4 20.0122 4.32698 20.654C4.6146 21.2184 5.07354 21.6774 5.63803 21.965C6.27976 22.292 7.11984 22.292 8.8 22.292H15.2C16.8802 22.292 17.7202 22.292 18.362 21.965C18.9265 21.6774 19.3854 21.2184 19.673 20.654C20 20.0122 20 19.1721 20 17.492V8.29199L14 2.29199Z" stroke="#667085" stroke-width="2" stroke-linecap="round" stroke-linejoin="round"/>
</g>
</svg>
