<svg width="16" height="16" viewBox="0 0 16 16" fill="none" xmlns="http://www.w3.org/2000/svg">
<g id="file-download-02">
<path id="Icon" d="M13.3327 8.3335V4.5335C13.3327 3.41339 13.3327 2.85334 13.1147 2.42552C12.9229 2.04919 12.617 1.74323 12.2407 1.55148C11.8128 1.3335 11.2528 1.3335 10.1327 1.3335H5.86602C4.74591 1.3335 4.18586 1.3335 3.75803 1.55148C3.38171 1.74323 3.07575 2.04919 2.884 2.42552C2.66602 2.85334 2.66602 3.41339 2.66602 4.5335V11.4668C2.66602 12.5869 2.66602 13.147 2.884 13.5748C3.07575 13.9511 3.38171 14.2571 3.75803 14.4488C4.18586 14.6668 4.74588 14.6668 5.86592 14.6668H8.33268M9.33268 7.3335H5.33268M6.66602 10.0002H5.33268M10.666 4.66683H5.33268M9.99935 12.6668L11.9993 14.6668M11.9993 14.6668L13.9993 12.6668M11.9993 14.6668V10.6668" stroke="#667085" stroke-width="1.5" stroke-linecap="round" stroke-linejoin="round"/>
</g>
</svg>
