<svg width="27" height="28" viewBox="0 0 27 28" fill="none" xmlns="http://www.w3.org/2000/svg">
<path d="M5 17H8M2 13L4 14L5.27064 10.1881C5.53292 9.40125 5.66405 9.00784 5.90729 8.71698C6.12208 8.46013 6.39792 8.26132 6.70951 8.13878C7.06236 8 7.47705 8 8.30643 8H15.6936C16.523 8 16.9376 8 17.2905 8.13878C17.6021 8.26132 17.8779 8.46013 18.0927 8.71698C18.3359 9.00784 18.4671 9.40125 18.7294 10.1881L20 14L22 13M16 17H19M6.8 14H17.2C18.8802 14 19.7202 14 20.362 14.327C20.9265 14.6146 21.3854 15.0735 21.673 15.638C22 16.2798 22 17.1198 22 18.8V21.5C22 21.9647 22 22.197 21.9616 22.3902C21.8038 23.1836 21.1836 23.8038 20.3902 23.9616C20.197 24 19.9647 24 19.5 24H19C17.8954 24 17 23.1046 17 22C17 21.7239 16.7761 21.5 16.5 21.5H7.5C7.22386 21.5 7 21.7239 7 22C7 23.1046 6.10457 24 5 24H4.5C4.03534 24 3.80302 24 3.60982 23.9616C2.81644 23.8038 2.19624 23.1836 2.03843 22.3902C2 22.197 2 21.9647 2 21.5V18.8C2 17.1198 2 16.2798 2.32698 15.638C2.6146 15.0735 3.07354 14.6146 3.63803 14.327C4.27976 14 5.11984 14 6.8 14Z" stroke="#667085" stroke-width="2" stroke-linecap="round" stroke-linejoin="round"/>
<circle cx="17.5" cy="9.5" r="9.5" fill="white"/>
<path d="M15.0209 8.08321H19.9792M15.0209 5.60416H19.9792M18.9167 13.7501L15.0209 10.5626L16.0834 10.5625C19.2317 10.5625 19.2317 5.60416 16.0834 5.60416M24.5834 9.49999C24.5834 13.412 21.4121 16.5833 17.5001 16.5833C13.5881 16.5833 10.4167 13.412 10.4167 9.49999C10.4167 5.58797 13.5881 2.41666 17.5001 2.41666C21.4121 2.41666 24.5834 5.58797 24.5834 9.49999Z" stroke="#667085" stroke-width="2" stroke-linecap="round" stroke-linejoin="round"/>
</svg>
